<svg id="Слой_2" data-name="Слой 2" xmlns="http://www.w3.org/2000/svg" viewBox="0 0 82.75 82.75"><defs><style>.cls-1,.cls-2,.cls-3{fill:#fff;}.cls-2,.cls-3{stroke:#fff;stroke-miterlimit:10;}.cls-2{stroke-width:0.25px;}</style></defs><title>earth</title><path class="cls-1" d="M480,318.75a38.88,38.88,0,1,1,38.88-38.87A38.92,38.92,0,0,1,480,318.75Z" transform="translate(-438.63 -238.5)"/><path class="cls-1" d="M480,243.5a36.38,36.38,0,1,1-36.37,36.38A36.42,36.42,0,0,1,480,243.5m0-5a41.38,41.38,0,1,0,41.38,41.38A41.38,41.38,0,0,0,480,238.5h0Z" transform="translate(-438.63 -238.5)"/><path class="cls-2" d="M513.25,259.75c-2.94-6.41-4.47-9.63-7.2-10s-5.19,2-7.07,3.81a14.6,14.6,0,0,0-4,7.18c-0.64,2.78,1.67,4.75,4.31,4.31-5.13.86-7.77,5.77-10.54,9.59s-7.05,8.72-6.81,13.67,5.93,5.71,9.52,7.56c4.23,2.18,6.41,2.77,7,4.93,0.42,1.59-.55,2.34-0.74,6.46-0.11,2.37-.16,3.69.61,4.29,1.63,1.28,5.82-1.62,6.53-2.08,9.49-6.24,11.94-19.74,12.62-23.46a38.23,38.23,0,0,0,.75-9.75C517.87,269.95,515.94,265.61,513.25,259.75Z" transform="translate(-438.63 -238.5)"/><path class="cls-3" d="M494.33,243.91c-0.56-.7-1.62-0.95-3.58-1.41a11.26,11.26,0,0,0-4.25-.25,9.69,9.69,0,0,0-1.12.24,4,4,0,0,0-2.23.14c-0.51-.92-1.34-2.11-2.4-2.13-0.74,0-1.18.54-2,1.25-2.89,2.5-4.88,2-5.22,3.43-0.29,1.25.9,2.74,2,3.43a5.28,5.28,0,0,0,2.23.68v0.09l-0.15,1.11c-0.14,1.11-.3,2.22-0.45,3.32a8,8,0,0,0-.06,3.8c1.22,3.53,5,3.14,7.57,1.44C491.08,254.75,496.47,246.56,494.33,243.91Z" transform="translate(-438.63 -238.5)"/><path class="cls-3" d="M478.12,297.75a7.15,7.15,0,0,0-3.3-1.16,5,5,0,0,0-1.65.29,0.86,0.86,0,0,1-.55-0.46c-0.46-.77-2-3.75-2.37-4.42-1.4-2.36-5-3.29-6-2.38-0.64.58-.12,1.83-0.71,2.13s-1.53-.52-2.41-1.41c-0.22-.07-0.56-0.16-1-0.25-2.15-.46-2.83,0-3.61-0.35-2.1-.8-1.79-5.5-2.53-5.5-0.45,0-.75,1.74-0.72,1.75s0.68-3.54,1.91-3.64a2,2,0,0,1,1.45.94,2,2,0,0,1,.29.64c0.9,3.41,5.77,3.25,6.75,0a11.7,11.7,0,0,0,.58-4.5,8.54,8.54,0,0,0-.41-1.8,1.16,1.16,0,0,1,.71-1.44c5.43-2,13.85-4.59,9.89-11a6.78,6.78,0,0,0-7.43-2.77c-0.9.21-5.22,2.75-5.82,2-1.52-1.91,4.86-4.5,6.1-3.72,3.64,2.27,6.52-2.58,4.24-5.5-6-7.68-23.46-3.57-25.47,6a3.66,3.66,0,0,0,0,1.45,1.16,1.16,0,0,1-.36,1.12,6.67,6.67,0,0,0-.77.76c-2.18,2.56-1.72,5.54-2.14,8.62a4,4,0,0,0,.23,2,1.21,1.21,0,0,1,.06.73,1.38,1.38,0,0,1-.56.77c-0.8.63-1.79,5.77,0.75,8.77,2.11,2.49,4.33.76,7.5,3.25,2.18,1.71,3,4,4.44,7.92,1.33,3.65-.23,4.4,2.05,7.83s5.36,5.23,5.41,9.84c0,1.24,3.09,2.48,6,2.47,5.93,0,9.27-7.26,9.63-8.06C480,304.74,480.26,299.36,478.12,297.75Z" transform="translate(-438.63 -238.5)"/></svg>