<?xml version="1.0" encoding="utf-8"?>
<!-- Generator: Adobe Illustrator 19.2.1, SVG Export Plug-In . SVG Version: 6.00 Build 0)  -->
<svg version="1.1" id="Слой_1" xmlns="http://www.w3.org/2000/svg" xmlns:xlink="http://www.w3.org/1999/xlink" x="0px" y="0px"
	 viewBox="0 0 48 48" style="enable-background:new 0 0 48 48;" xml:space="preserve">
<style type="text/css">
	.st0{fill:#FFFFFF;}
</style>
<g id="surface1">
	<g>
		<path class="st0" d="M6,26.5c-0.3,0-0.5-0.2-0.5-0.5v-4c0-0.3,0.2-0.5,0.5-0.5h36c0.3,0,0.5,0.2,0.5,0.5v4c0,0.3-0.2,0.5-0.5,0.5
			H6z"/>
		<path class="st0" d="M42,22v4H6v-4H42 M42,21H6c-0.6,0-1,0.4-1,1v4c0,0.6,0.4,1,1,1h36c0.6,0,1-0.4,1-1v-4C43,21.4,42.6,21,42,21
			L42,21z"/>
	</g>
	<g>
		<path class="st0" d="M6,14.5c-0.3,0-0.5-0.2-0.5-0.5v-4c0-0.3,0.2-0.5,0.5-0.5h36c0.3,0,0.5,0.2,0.5,0.5v4c0,0.3-0.2,0.5-0.5,0.5
			H6z"/>
		<path class="st0" d="M42,10v4H6v-4H42 M42,9H6c-0.6,0-1,0.4-1,1v4c0,0.6,0.4,1,1,1h36c0.6,0,1-0.4,1-1v-4C43,9.4,42.6,9,42,9L42,9
			z"/>
	</g>
	<g>
		<path class="st0" d="M6,38.5c-0.3,0-0.5-0.2-0.5-0.5v-4c0-0.3,0.2-0.5,0.5-0.5h36c0.3,0,0.5,0.2,0.5,0.5v4c0,0.3-0.2,0.5-0.5,0.5
			H6z"/>
		<path class="st0" d="M42,34v4H6v-4H42 M42,33H6c-0.6,0-1,0.4-1,1v4c0,0.6,0.4,1,1,1h36c0.6,0,1-0.4,1-1v-4C43,33.4,42.6,33,42,33
			L42,33z"/>
	</g>
</g>
</svg>
